# xmcd
#
# Track frame offsets:
# 150
# 10684
# 21311
# 33250
# 49249
# 61791
# 81637
# 94715
# 106068
# 116480
# 127364
# 145032
#
# Disc length: 2167 seconds
#
#
# Revision: 3
# Processed by: cddbd v1.5.1PL0 Copyright (c) Steve Scherf et al.
# Submitted via: FreeRIP 2.91 
#
DISCID=9c08750c
DTITLE=Ursprung Buam - Romeo and Julia
DYEAR=2003
DGENRE=Folk
TTITLE0=Ursprung Buam - Romeo und Julia
TTITLE1=Ursprung Buam - Ein Abend der Volsmusik
TTITLE2=Ursprung Buam - I woass net ein, i woass net aus
TTITLE3=Ursprung Buam - I bin a Volksmusikand vom Zillertal
TTITLE4=Ursprung Buam - Vom huam giah woll`n ma nix wiss`n
TTITLE5=Ursprung Buam - Maria Magdalena
TTITLE6=Ursprung Buam -  Wia der Blitz, grad a so
TTITLE7=Ursprung Buam -  Zichn-Boarischer
TTITLE8=Ursprung Buam -  Verzwickt is a tia
TTITLE9=Ursprung Buam -  Klangwalzer
TTITLE10=Ursprung Buam -  Iatz miaﬂt`s holt gia losa a bois
TTITLE11=Ursprung Buam -  Wenn meine Gipfel tr‰umen
EXTD=YEAR: 2003
EXTT0=
EXTT1=
EXTT2=
EXTT3=
EXTT4=
EXTT5=
EXTT6=
EXTT7=
EXTT8=
EXTT9=
EXTT10=
EXTT11=
PLAYORDER=
